<?xml version="1.0" encoding="utf-8"?>
<!-- Generator: Adobe Illustrator 23.0.1, SVG Export Plug-In . SVG Version: 6.00 Build 0)  -->
<svg version="1.1" id="Capa_1" xmlns="http://www.w3.org/2000/svg" xmlns:xlink="http://www.w3.org/1999/xlink" x="0px" y="0px"
	 viewBox="0 0 24 24" style="enable-background:new 0 0 24 24;" xml:space="preserve">
<path d="M18,14v-3h-3V9h3V6h2v3h3v2h-3v3H18z M9,12c-1.1,0-2-0.4-2.8-1.2C5.4,10,5,9.1,5,8s0.4-2,1.2-2.8S7.9,4,9,4s2,0.4,2.8,1.2
	C12.6,6,13,6.9,13,8s-0.4,2-1.2,2.8C11,11.6,10.1,12,9,12z M1,20v-2.8c0-0.6,0.1-1.1,0.4-1.6s0.7-0.8,1.2-1.1c1-0.5,2.1-0.9,3.1-1.2
	S7.9,13,9,13s2.2,0.1,3.3,0.4s2.1,0.6,3.2,1.2c0.5,0.3,0.9,0.6,1.2,1.1c0.3,0.5,0.4,1,0.4,1.6V20H1z M3,18h12v-0.8
	c0-0.2,0-0.4-0.1-0.5s-0.2-0.3-0.4-0.4c-0.9-0.4-1.8-0.8-2.7-1C10.9,15.1,9.9,15,9,15s-1.9,0.1-2.8,0.3c-0.9,0.2-1.8,0.6-2.7,1
	c-0.1,0.1-0.3,0.2-0.4,0.4S3,17,3,17.2V18z M9,10c0.6,0,1-0.2,1.4-0.6C10.8,9,11,8.5,11,8c0-0.5-0.2-1-0.6-1.4C10,6.2,9.6,6,9,6
	S8,6.2,7.6,6.6C7.2,7,7,7.4,7,8c0,0.6,0.2,1,0.6,1.4C8,9.8,8.4,10,9,10z"/>
</svg>
