<?xml version="1.0" encoding="utf-8"?>
<!-- Generator: Adobe Illustrator 23.0.1, SVG Export Plug-In . SVG Version: 6.00 Build 0)  -->
<svg version="1.1" id="Capa_1" xmlns="http://www.w3.org/2000/svg" xmlns:xlink="http://www.w3.org/1999/xlink" x="0px" y="0px"
	 viewBox="0 0 24 24" style="enable-background:new 0 0 24 24;" xml:space="preserve">
<path d="M6,4v5V4v16v-0.2V20V4z M6,22c-0.5,0-1-0.2-1.4-0.6S4,20.5,4,20V4c0-0.6,0.2-1,0.6-1.4S5.5,2,6,2h8l6,6v4.3
	c-0.3-0.1-0.6-0.2-1-0.3C18.7,12,18.4,12,18,12V9h-5V4H6v16h6.4c0.1,0.4,0.3,0.7,0.5,1.1s0.4,0.6,0.7,0.9H6z M15.9,21.5l-1.4-1.4
	l2.1-2.1l-2.1-2.1l1.4-1.4l2.1,2.1l2.1-2.1l1.4,1.4L19.4,18l2.1,2.1l-1.4,1.4L18,19.4L15.9,21.5z"/>
</svg>
