<?xml version="1.0" encoding="utf-8"?>
<!-- Generator: Adobe Illustrator 23.0.1, SVG Export Plug-In . SVG Version: 6.00 Build 0)  -->
<svg version="1.1" id="Capa_1" xmlns="http://www.w3.org/2000/svg" xmlns:xlink="http://www.w3.org/1999/xlink" x="0px" y="0px"
	 viewBox="0 0 24 24" style="enable-background:new 0 0 24 24;" xml:space="preserve">
<path d="M14,22v-3.1l5.5-5.5c0.2-0.2,0.3-0.3,0.5-0.3c0.2-0.1,0.4-0.1,0.6-0.1c0.2,0,0.4,0,0.6,0.1c0.2,0.1,0.4,0.2,0.5,0.3l0.9,0.9
	c0.1,0.1,0.2,0.3,0.3,0.5c0.1,0.2,0.1,0.4,0.1,0.6c0,0.2,0,0.4-0.1,0.6c-0.1,0.2-0.2,0.4-0.3,0.5L17.1,22H14z M21.5,15.4l-0.9-0.9
	L21.5,15.4z M15.5,20.5h1l3-3L19,17l-0.5-0.4l-3.1,3V20.5z M6,22c-0.5,0-1-0.2-1.4-0.6S4,20.5,4,20V4c0-0.6,0.2-1,0.6-1.4S5.5,2,6,2
	h8l6,6v3h-2V9h-5V4H6v16h6v2H6z M19,17l-0.5-0.4l0.9,0.9L19,17z"/>
</svg>
